#!OML:ASF H:\Terrain\Patient Classification 1\Walking\liu\liu.ASF
:FULLY-SPECIFIED
:DEGREES
421
root 10.092300 16.754400 23.371500 8.164130 0.340079 -4.727430
lowerback -4.387075 1.381570 0.612205
upperback -0.899730 1.745065 1.086535
thorax 1.491080 0.870865 0.975180
lowerneck -9.743400 -3.478405 -7.334200
upperneck 10.961700 -4.502220 7.138850
head 5.888050 -1.826735 3.172215
rclavicle -0.000000 -0.000000
rhumerus -18.090401 5.041900 -44.338402
rradius 16.515699
rwrist -7.051450
rhand -14.519600 -12.306850
rfingers 3.562510
rthumb -1.194800 -27.290001
lclavicle -0.000000 -0.000000
lhumerus -25.514700 -3.575800 46.289749
lradius 11.226100
lwrist 0.442309
lhand -3.593615 -11.271450
lfingers 3.562510
lthumb 9.345350 3.289575
rfemur 12.430150 1.513760 14.159800
rtibia 0.000000
rfoot 4.709005 1.955255
rtoes -11.153750
lfemur -22.064751 1.233515 -9.334150
ltibia 17.226700
lfoot 0.564595 3.889830
ltoes 0.960425
422
root 10.122300 16.775900 23.530899 8.124530 0.487934 -4.674200
lowerback -4.343720 1.319745 0.644200
upperback -0.945465 1.663105 1.058995
thorax 1.424990 0.830630 0.915790
lowerneck -9.862950 -3.538825 -7.299150
upperneck 11.151900 -4.583730 7.058050
head 5.992150 -1.864965 3.126640
rclavicle -0.000000 -0.000000
rhumerus -18.429399 5.007500 -44.499401
rradius 16.295750
rwrist -7.209300
rhand -14.283350 -12.910650
rfingers 3.562510
rthumb -0.966635 -27.896151
lclavicle -0.000000 -0.000000
lhumerus -25.230850 -3.255900 45.940449
lradius 10.945850
lwrist -0.114909
lhand -3.725235 -11.435650
lfingers 3.562510
lthumb 9.218750 3.137445
rfemur 11.100900 1.391430 14.002550
rtibia 2.888715
rfoot 4.790690 2.018965
rtoes -9.682600
lfemur -21.895599 1.062520 -9.358850
ltibia 17.525000
lfoot 0.119305 3.856915
ltoes 0.928580
423
root 10.158700 16.818800 23.700100 8.035590 0.462645 -4.109360
lowerback -4.214760 1.252940 0.404743
upperback -1.056785 1.602955 1.002430
thorax 1.229735 0.800505 0.974070
lowerneck -9.507350 -3.368565 -7.237200
upperneck 11.079050 -4.373725 6.969100
head 5.847750 -1.788905 3.117695
rclavicle -0.000000 -0.000000
rhumerus -18.888950 4.869445 -44.514500
rradius 16.149450
rwrist -6.951800
rhand -13.592100 -14.411050
rfingers 3.562510
rthumb -0.299015 -29.400499
lclavicle -0.000000 -0.000000
lhumerus -25.056499 -2.663325 45.481899
lradius 10.717800
lwrist -0.893230
lhand -3.315350 -11.191600
lfingers 3.562510
lthumb 9.613000 3.343220
rfemur 9.755150 1.337660 13.433150
rtibia 5.791000
rfoot 5.234900 1.580965
rtoes -3.877470
lfemur -21.542101 0.897800 -9.675100
ltibia 17.635700
lfoot -0.264813 3.809090
ltoes 1.716710
424
root 10.196200 16.849501 23.863701 7.882440 0.264051 -3.143260
lowerback -3.659320 1.292860 0.041929
upperback -1.486290 1.705475 0.826355
thorax 0.466244 0.857490 0.961535
lowerneck -8.894700 -3.296190 -7.372600
upperneck 11.138600 -4.335350 7.021500
head 5.751650 -1.800825 3.176560
rclavicle -0.000000 -0.000000
rhumerus -19.920401 4.394250 -44.520401
rradius 16.118799
rwrist -6.574850
rhand -13.040250 -15.835900
rfingers 3.562510
rthumb 0.234019 -30.825500
lclavicle -0.000000 -0.000000
lhumerus -25.395500 -2.559815 45.302200
lradius 10.552150
lwrist -1.262635
lhand -2.703545 -10.789700
lfingers 3.562510
lthumb 10.201100 3.684400
rfemur 8.726950 0.731900 12.598600
rtibia 8.071400
rfoot 5.698450 2.485365
rtoes -6.928400
lfemur -21.084200 0.748640 -10.215200
ltibia 17.627951
lfoot -0.587490 3.887190
ltoes 2.014865
425
root 10.230400 16.878201 24.027201 7.852980 -0.008902 -2.616020
lowerback -3.755305 1.334480 -0.112258
upperback -1.478075 1.771725 0.732055
thorax 0.522310 0.890555 0.961175
lowerneck -8.801200 -3.296630 -7.393150
upperneck 11.093600 -4.320005 6.955800
head 5.710850 -1.806395 3.155340
rclavicle 0.000000 -0.000000
rhumerus -20.199850 4.157510 -44.480598
rradius 15.897200
rwrist -6.463700
rhand -13.058600 -15.482100
rfingers 3.562510
rthumb 0.216264 -30.471750
lclavicle 0.000000 -0.000000
lhumerus -24.999750 -2.481900 45.162449
lradius 10.363050
lwrist -1.423295
lhand -2.505230 -10.648450
lfingers 3.562510
lthumb 10.391700 3.805030
rfemur 7.793600 0.422974 12.053950
rtibia 10.109350
rfoot 5.948250 2.993085
rtoes -8.101200
lfemur -20.663000 0.768440 -10.560300
ltibia 17.541500
lfoot -0.864020 3.931085
ltoes 1.108095
426
root 10.266000 16.903601 24.190599 7.860530 -0.365383 -2.140790
lowerback -3.945405 1.358940 -0.270140
upperback -1.187710 1.813185 0.669475
thorax 0.919780 0.906385 1.008765
lowerneck -9.497150 -3.382725 -7.371050
upperneck 11.115850 -4.328355 6.866450
head 5.852850 -1.792230 3.109670
rclavicle -0.000000 -0.000000
rhumerus -19.857800 4.138830 -44.396950
rradius 15.604600
rwrist -6.532250
rhand -13.330900 -14.475050
rfingers 3.562510
rthumb -0.046738 -29.464951
lclavicle -0.000000 -0.000000
lhumerus -24.042299 -2.260655 44.967651
lradius 10.175100
lwrist -1.670800
lhand -2.837555 -10.746150
lfingers 3.562510
lthumb 10.072350 3.741650
rfemur 6.934300 0.231467 11.548400
rtibia 11.996800
rfoot 6.414650 3.065215
rtoes -7.382900
lfemur -20.274799 0.898745 -10.916950
ltibia 17.466900
lfoot -1.132575 3.885770
ltoes 1.377495
427
root 10.296200 16.934401 24.338400 7.886500 -0.700720 -1.747470
lowerback -3.940395 1.338755 -0.436159
upperback -1.155820 1.799960 0.630785
thorax 0.942635 0.899185 1.061190
lowerneck -9.552500 -3.357895 -7.402350
upperneck 11.020450 -4.268090 6.879550
head 5.819400 -1.764170 3.126255
rclavicle -0.000000 0.000000
rhumerus -20.016451 4.254115 -44.474751
rradius 15.500100
rwrist -6.573450
rhand -13.143300 -14.870850
rfingers 3.562510
rthumb 0.134465 -29.860649
lclavicle -0.000000 0.000000
lhumerus -23.561399 -1.920350 44.736301
lradius 9.984350
lwrist -2.025835
lhand -3.575250 -11.154750
lfingers 3.562510
lthumb 9.363050 3.404570
rfemur 6.067250 0.118643 11.133900
rtibia 13.787800
rfoot 6.812450 3.298860
rtoes -7.516000
lfemur -19.930901 1.031425 -11.208200
ltibia 17.405701
lfoot -1.417045 3.833280
ltoes 2.479000
428
root 10.319300 16.964899 24.477600 7.970150 -0.962708 -1.609890
lowerback -3.828035 1.329290 -0.475399
upperback -1.301835 1.791570 0.595620
thorax 0.730015 0.898275 1.034930
lowerneck -9.419300 -3.280765 -7.244550
upperneck 11.088700 -4.178580 6.682850
head 5.784650 -1.737510 3.040470
rclavicle 0.000000 -0.000000
rhumerus -20.424351 4.373455 -44.679749
rradius 15.345400
rwrist -6.671500
rhand -13.127450 -15.494700
rfingers 3.562510
rthumb 0.149779 -30.484449
lclavicle 0.000000 -0.000000
lhumerus -23.398899 -1.748280 44.550400
lradius 9.835000
lwrist -2.295490
lhand -4.017405 -11.478900
lfingers 3.562510
lthumb 8.937650 3.120335
rfemur 5.187050 0.081561 10.910700
rtibia 15.484450
rfoot 6.717500 4.044320
rtoes -9.236050
lfemur -19.644051 1.180325 -11.344200
ltibia 17.333050
lfoot -1.703920 3.780985
ltoes 2.627260
429
root 10.344900 16.992100 24.625099 7.963500 -1.196320 -1.323420
lowerback -3.762785 1.329830 -0.560045
upperback -1.481050 1.799480 0.554965
thorax 0.506130 0.906125 1.031315
lowerneck -9.109600 -3.223130 -7.181250
upperneck 11.207250 -4.120520 6.499600
head 5.745450 -1.737985 2.974680
rclavicle -0.000000 -0.000000
rhumerus -20.938299 4.425070 -44.819901
rradius 15.111150
rwrist -6.750050
rhand -13.781050 -15.111400
rfingers 3.562510
rthumb -0.481467 -30.100201
lclavicle -0.000000 -0.000000
lhumerus -23.422300 -1.671650 44.468601
lradius 9.794450
lwrist -2.434820
lhand -4.327160 -11.752350
lfingers 3.562510
lthumb 8.639600 2.873550
rfemur 4.417940 0.029234 10.605250
rtibia 17.106701
rfoot 7.034850 4.042730
rtoes -8.765400
lfemur -19.261650 1.282820 -11.555550
ltibia 17.205851
lfoot -1.963380 3.767680
ltoes 2.637115
430
root 10.372300 17.024900 24.767799 7.954740 -1.452870 -0.904759
lowerback -3.604815 1.342345 -0.682610
upperback -1.727995 1.824785 0.480518
thorax 0.160212 0.925060 1.008020
lowerneck -8.476050 -3.126025 -7.352900
upperneck 11.099600 -4.063700 6.699350
head 5.588650 -1.727290 3.093340
rclavicle -0.000000 -0.000000
rhumerus -21.607651 4.300020 -44.886799
rradius 15.043000
rwrist -6.582750
rhand -13.531100 -14.899300
rfingers 3.562510
rthumb -0.240101 -29.888901
lclavicle -0.000000 -0.000000
lhumerus -23.520250 -1.658215 44.406952
lradius 9.781450
lwrist -2.493945
lhand -4.702940 -12.109850
lfingers 3.562510
lthumb 8.277850 2.547020
rfemur 3.645915 0.007371 10.257900
rtibia 18.625549
rfoot 8.150200 2.745860
rtoes -5.636350
lfemur -18.860149 1.364915 -11.836550
ltibia 17.042200
lfoot -2.182860 3.792745
ltoes 3.051810
431
root 10.400500 17.059999 24.908199 7.878700 -1.800280 -0.282753
lowerback -3.266010 1.357680 -0.904340
upperback -2.019355 1.854755 0.371650
thorax -0.336221 0.950380 0.993100
lowerneck -7.971100 -2.964585 -7.430750
upperneck 11.123700 -3.916255 6.819300
head 5.481450 -1.672170 3.183035
rclavicle 0.000000 0.000000
rhumerus -22.315800 4.294810 -45.044651
rradius 15.060900
rwrist -6.541850
rhand -13.188200 -14.742250
rfingers 3.562510
rthumb 0.091093 -29.732100
lclavicle 0.000000 0.000000
lhumerus -23.610550 -1.657535 44.347252
lradius 9.721000
lwrist -2.501910
lhand -4.606280 -12.006300
lfingers 3.562510
lthumb 8.370900 2.642765
rfemur 2.860795 -0.061868 9.797500
rtibia 20.040449
rfoot 8.946550 1.995935
rtoes -4.491570
lfemur -18.410101 1.554570 -12.266150
ltibia 16.859800
lfoot -2.414275 3.752665
ltoes 2.569350
432
root 10.431900 17.091499 25.056400 7.806010 -2.039120 0.035332
lowerback -3.232900 1.341580 -0.968980
upperback -2.021470 1.836070 0.350927
thorax -0.358656 0.942165 1.004955
lowerneck -8.067850 -2.925915 -7.518100
upperneck 11.256650 -3.831925 6.806600
head 5.538500 -1.639895 3.212220
rclavicle 0.000000 0.000000
rhumerus -22.463600 4.645315 -45.223400
rradius 14.926100
rwrist -6.833650
rhand -13.917450 -13.651900
rfingers 3.562510
rthumb -0.613240 -28.639999
lclavicle 0.000000 0.000000
lhumerus -23.234900 -1.472810 44.264400
lradius 9.667000
lwrist -2.644825
lhand -4.910615 -12.087650
lfingers 3.562510
lthumb 8.077900 2.585715
rfemur 2.066060 -0.187810 9.523150
rtibia 21.439301
rfoot 9.303550 2.143545
rtoes -5.929700
lfemur -17.954000 1.771525 -12.547450
ltibia 16.670401
lfoot -2.622455 3.621555
ltoes 1.705515
